<svg preserveAspectRatio="xMidYMid" style="max-height: 500px" viewBox="92.9096706129846 54.38297872340426 320.60186931831754 50.39716312056737" xmlns="http://www.w3.org/2000/svg" width="320.60186931831754" height="50.39716312056737"><g><g transform="translate(94.75624233484268, 96.98500061035156)"><path fill="#fefae0ff" d="M41.28-33.79L41.28-33.79L41.28-33.79Q41.28-32.38 40.13-30.53L40.13-30.53L40.13-30.53Q39.17-28.80 37.98-28.16L37.98-28.16L37.98-28.16Q36.80-27.52 36.80-28.29L36.80-28.29L36.80-28.29Q36.80-28.35 37.50-29.06L37.50-29.06L37.50-29.06Q39.62-31.04 39.62-32.32L39.62-32.32L39.62-32.32Q39.62-35.07 34.18-35.07L34.18-35.07L34.18-35.07Q31.87-35.07 28.10-34.21L28.10-34.21L28.10-34.21Q24.32-33.34 20.80-31.42L20.80-31.42L20.80-31.42Q16.70-29.18 16.70-27.52L16.70-27.52L16.70-27.52Q16.70-26.18 19.20-24.96L19.20-24.96L19.20-24.96Q20.54-24.32 24.54-22.82L24.54-22.82L24.54-22.82Q28.54-21.31 31.01-20.19L31.01-20.19L31.01-20.19Q33.47-19.07 35.68-17.02L35.68-17.02L35.68-17.02Q37.89-14.98 37.89-12.48L37.89-12.48L37.89-12.48Q37.89-9.98 34.94-7.04L34.94-7.04L34.94-7.04Q30.46-2.75 23.30 0.10L23.30 0.10L23.30 0.10Q16.13 2.94 11.01 2.94L11.01 2.94L11.01 2.94Q0.90 2.94 0.90-2.75L0.90-2.75L0.90-2.75Q0.90-8.45 7.10-12.42L7.10-12.42L7.10-12.42Q12.22-15.94 17.86-15.94L17.86-15.94L17.86-15.94Q19.20-15.94 19.07-15.49L19.07-15.49L19.07-15.49Q18.94-15.04 17.15-15.01L17.15-15.01L17.15-15.01Q15.36-14.98 12.54-13.79L12.54-13.79L12.54-13.79Q9.73-12.61 7.30-10.37L7.30-10.37L7.30-10.37Q4.10-7.49 4.10-4.61L4.10-4.61L4.10-4.61Q4.10-2.82 5.82-1.41L5.82-1.41L5.82-1.41Q7.55 0 12.42 0L12.42 0L12.42 0Q17.28 0 22.02-1.54L22.02-1.54L22.02-1.54Q32.26-4.93 34.82-8.96L34.82-8.96L34.82-8.96Q35.84-10.43 35.84-11.46L35.84-11.46L35.84-11.46Q35.84-14.40 32.26-16.06L32.26-16.06L32.26-16.06Q28.10-17.98 20.61-20.48L20.61-20.48L20.61-20.48Q17.73-21.44 15.71-23.01L15.71-23.01L15.71-23.01Q13.70-24.58 13.70-26.78L13.70-26.78L13.70-26.78Q13.70-28.99 16.10-31.14L16.10-31.14L16.10-31.14Q18.50-33.28 21.89-34.56L21.89-34.56L21.89-34.56Q29.18-37.31 34.24-37.31L34.24-37.31L34.24-37.31Q41.28-37.31 41.28-33.79ZM43.65 0.70L43.65 0.70L43.65 0.70Q42.62 0.70 41.44 0.10L41.44 0.10L41.44 0.10Q40.26-0.51 39.42-1.63L39.42-1.63L39.42-1.63Q38.59-2.75 38.59-4.03L38.59-4.03L38.59-4.03Q38.59-5.31 39.17-6.46L39.17-6.46L39.17-6.46Q40.45-9.15 43.30-11.68L43.30-11.68L43.30-11.68Q46.14-14.21 49.22-16L49.22-16L49.22-16Q52.29-17.79 54.08-18.24L54.08-18.24L54.08-18.24Q55.87-18.69 57.57-18.69L57.57-18.69L57.57-18.69Q59.26-18.69 60.48-17.82L60.48-17.82L60.48-17.82Q61.70-16.96 61.70-16L61.70-16L61.70-16Q61.70-15.68 61.63-15.62L61.63-15.62L61.63-15.62Q61.57-15.55 61.31-15.68L61.31-15.68L61.31-15.68Q60.54-16.90 58.14-16.90L58.14-16.90L58.14-16.90Q55.74-16.90 52.70-15.33L52.70-15.33L52.70-15.33Q49.66-13.76 46.98-11.39L46.98-11.39L46.98-11.39Q44.74-9.28 43.04-6.62L43.04-6.62L43.04-6.62Q41.34-3.97 41.34-2.75L41.34-2.75L41.34-2.75Q41.34-0.38 42.69-0.38L42.69-0.38L42.69-0.38Q44.03-0.38 46.78-2.56L46.78-2.56L46.78-2.56Q51.33-6.40 52.99-8.19L52.99-8.19L52.99-8.19Q58.88-14.53 59.33-14.53L59.33-14.53L59.33-14.53Q60.10-14.53 61.18-14.08L61.18-14.08L61.18-14.08Q62.27-13.63 61.89-12.99L61.89-12.99L61.89-12.99Q58.62-8.38 58.05-3.71L58.05-3.71L58.05-3.71Q57.98-3.14 57.98-2.24L57.98-2.24L57.98-2.24Q57.98-1.34 58.50-0.77L58.50-0.77L58.50-0.77Q59.46 0.26 61.12-0.64L61.12-0.64L61.12-0.64Q62.78-1.54 65.76-4.22L65.76-4.22L65.76-4.22Q68.74-6.91 70.53-9.47L70.53-9.47L70.53-9.47Q70.78-9.79 71.10-9.63L71.10-9.63L71.10-9.63Q71.42-9.47 71.42-9.34L71.42-9.34L71.42-9.34Q71.42-8.38 68.38-5.15L68.38-5.15L68.38-5.15Q65.34-1.92 63.74-0.77L63.74-0.77L63.74-0.77Q60.74 1.47 58.18 1.47L58.18 1.47L58.18 1.47Q55.74 1.47 54.91-0.96L54.91-0.96L54.91-0.96Q54.72-1.73 54.72-2.69L54.72-2.69L54.72-2.69Q54.72-5.57 55.94-8.77L55.94-8.77L55.94-8.77Q55.68-8.64 53.57-6.21L53.57-6.21L53.57-6.21Q51.46-3.78 48.67-1.54L48.67-1.54L48.67-1.54Q45.89 0.70 43.65 0.70ZM91.90-32.64L91.90-32.64L91.90-32.64Q92.67-34.05 92.67-34.82L92.67-34.82L92.67-34.82Q92.67-36.16 91.58-36.16L91.58-36.16L91.58-36.16Q90.69-36.16 89.34-35.14L89.34-35.14L89.34-35.14Q84.22-31.17 79.42-22.59L79.42-22.59L79.42-22.59Q75.58-15.68 73.79-10.75L73.79-10.75L73.79-10.75Q78.21-13.76 83.68-20.54L83.68-20.54L83.68-20.54Q89.15-27.33 91.90-32.64ZM72.83-8.19L72.83-8.19L72.83-8.19Q72.06-6.02 72-5.28L72-5.28L72-5.28Q71.94-4.54 71.94-3.30L71.94-3.30L71.94-3.30Q71.94-2.05 72.58-1.02L72.58-1.02L72.58-1.02Q73.66 0.70 76.22-0.77L76.22-0.77L76.22-0.77Q78.14-1.79 81.09-4.51L81.09-4.51L81.09-4.51Q84.03-7.23 85.63-9.47L85.63-9.47L85.63-9.47Q85.76-9.66 86.02-9.66L86.02-9.66L86.02-9.66Q86.59-9.66 86.34-8.83L86.34-8.83L86.34-8.83Q85.38-7.10 82.78-4.42L82.78-4.42L82.78-4.42Q80.19-1.73 78.08-0.16L78.08-0.16L78.08-0.16Q75.97 1.41 73.86 1.41L73.86 1.41L73.86 1.41Q68.99 1.41 68.99-3.33L68.99-3.33L68.99-3.33Q68.99-3.52 68.99-3.71L68.99-3.71L68.99-3.71Q69.25-8.19 73.54-17.25L73.54-17.25L73.54-17.25Q77.82-26.30 81.28-30.91L81.28-30.91L83.26-33.41L83.26-33.41Q83.97-34.24 85.31-35.46L85.31-35.46L85.31-35.46Q87.87-37.89 90.59-37.89L90.59-37.89L90.59-37.89Q93.31-37.89 94.27-36.22L94.27-36.22L94.27-36.22Q94.59-35.65 94.59-34.56L94.59-34.56L94.59-34.56Q94.59-33.47 93.63-31.49L93.63-31.49L93.63-31.49Q87.04-20.03 72.83-8.19ZM94.56-16L94.56-16L94.56-16Q93.63-15.23 91.17-12L91.17-12L91.17-12Q88.70-8.77 87.78-6.27L87.78-6.27L87.78-6.27Q86.85-3.78 86.85-2.18L86.85-2.18L86.85-2.18Q86.85-0.58 88.22-0.58L88.22-0.58L88.22-0.58Q89.60-0.58 92.10-2.56L92.10-2.56L92.10-2.56Q96.13-5.89 101.18-14.91L101.18-14.91L101.18-14.91Q101.44-15.36 102.11-15.36L102.11-15.36L102.11-15.36Q102.78-15.36 103.97-15.01L103.97-15.01L103.97-15.01Q105.15-14.66 105.15-14.08L105.15-14.08L105.15-14.08Q105.15-13.89 105.02-13.70L105.02-13.70L105.02-13.70Q102.34-9.34 101.63-3.84L101.63-3.84L101.63-3.84Q101.38-1.98 102.27-0.83L102.27-0.83L102.27-0.83Q103.10 0.32 105.66-1.09L105.66-1.09L105.66-1.09Q109.63-3.07 112.93-7.30L112.93-7.30L112.93-7.30Q116.22-11.52 116.99-14.91L116.99-14.91L116.99-14.91Q117.25-15.62 117.25-16.45L117.25-16.45L117.25-16.45Q117.25-20.03 115.20-20.80L115.20-20.80L115.20-20.80Q114.62-21.06 113.92-20.96L113.92-20.96L113.92-20.96Q113.22-20.86 113.09-21.02L113.09-21.02L113.09-21.02Q112.96-21.18 113.02-21.38L113.02-21.38L113.02-21.38Q113.15-21.95 115.65-21.95L115.65-21.95L115.65-21.95Q119.81-21.95 119.81-17.66L119.81-17.66L119.81-17.66Q119.81-13.38 114.94-7.36L114.94-7.36L114.94-7.36Q111.87-3.71 107.71-0.64L107.71-0.64L107.71-0.64Q105.41 0.96 102.91 0.96L102.91 0.96L102.91 0.96Q99.65 0.96 98.88-1.47L98.88-1.47L98.88-1.47Q98.43-2.62 98.43-5.12L98.43-5.12L98.43-5.12Q98.43-7.62 99.07-9.22L99.07-9.22L99.07-9.22Q97.34-5.76 95.30-3.39L95.30-3.39L95.30-3.39Q93.25-1.02 91.81-0.16L91.81-0.16L91.81-0.16Q90.37 0.70 88.90 0.70L88.90 0.70L88.90 0.70Q86.34 0.70 85.31-0.67L85.31-0.67L85.31-0.67Q84.29-2.05 84.29-3.65L84.29-3.65L84.29-3.65Q84.29-5.76 85.22-8.22L85.22-8.22L85.22-8.22Q86.14-10.69 87.07-12.13L87.07-12.13L87.07-12.13Q88-13.57 89.50-15.58L89.50-15.58L89.50-15.58Q91.01-17.60 91.46-17.79L91.46-17.79L91.46-17.79Q92.42-18.05 93.28-18.05L93.28-18.05L93.28-18.05Q94.14-18.05 94.78-17.79L94.78-17.79L94.78-17.79Q95.42-17.54 95.46-17.15L95.46-17.15L95.46-17.15Q95.49-16.77 94.56-16ZM123.14 0.70L123.14 0.70L123.14 0.70Q122.11 0.70 120.93 0.10L120.93 0.10L120.93 0.10Q119.74-0.51 118.91-1.63L118.91-1.63L118.91-1.63Q118.08-2.75 118.08-4.03L118.08-4.03L118.08-4.03Q118.08-5.31 118.66-6.46L118.66-6.46L118.66-6.46Q119.94-9.15 122.78-11.68L122.78-11.68L122.78-11.68Q125.63-14.21 128.70-16L128.70-16L128.70-16Q131.78-17.79 133.57-18.24L133.57-18.24L133.57-18.24Q135.36-18.69 137.06-18.69L137.06-18.69L137.06-18.69Q138.75-18.69 139.97-17.82L139.97-17.82L139.97-17.82Q141.18-16.96 141.18-16L141.18-16L141.18-16Q141.18-15.68 141.12-15.62L141.12-15.62L141.12-15.62Q141.06-15.55 140.80-15.68L140.80-15.68L140.80-15.68Q140.03-16.90 137.63-16.90L137.63-16.90L137.63-16.90Q135.23-16.90 132.19-15.33L132.19-15.33L132.19-15.33Q129.15-13.76 126.46-11.39L126.46-11.39L126.46-11.39Q124.22-9.28 122.53-6.62L122.53-6.62L122.53-6.62Q120.83-3.97 120.83-2.75L120.83-2.75L120.83-2.75Q120.83-0.38 122.18-0.38L122.18-0.38L122.18-0.38Q123.52-0.38 126.27-2.56L126.27-2.56L126.27-2.56Q130.82-6.40 132.48-8.19L132.48-8.19L132.48-8.19Q138.37-14.53 138.82-14.53L138.82-14.53L138.82-14.53Q139.58-14.53 140.67-14.08L140.67-14.08L140.67-14.08Q141.76-13.63 141.38-12.99L141.38-12.99L141.38-12.99Q138.11-8.38 137.54-3.71L137.54-3.71L137.54-3.71Q137.47-3.14 137.47-2.24L137.47-2.24L137.47-2.24Q137.47-1.34 137.98-0.77L137.98-0.77L137.98-0.77Q138.94 0.26 140.61-0.64L140.61-0.64L140.61-0.64Q142.27-1.54 145.25-4.22L145.25-4.22L145.25-4.22Q148.22-6.91 150.02-9.47L150.02-9.47L150.02-9.47Q150.27-9.79 150.59-9.63L150.59-9.63L150.59-9.63Q150.91-9.47 150.91-9.34L150.91-9.34L150.91-9.34Q150.91-8.38 147.87-5.15L147.87-5.15L147.87-5.15Q144.83-1.92 143.23-0.77L143.23-0.77L143.23-0.77Q140.22 1.47 137.66 1.47L137.66 1.47L137.66 1.47Q135.23 1.47 134.40-0.96L134.40-0.96L134.40-0.96Q134.21-1.73 134.21-2.69L134.21-2.69L134.21-2.69Q134.21-5.57 135.42-8.77L135.42-8.77L135.42-8.77Q135.17-8.64 133.06-6.21L133.06-6.21L133.06-6.21Q130.94-3.78 128.16-1.54L128.16-1.54L128.16-1.54Q125.38 0.70 123.14 0.70ZM166.98-18.18L166.98-18.18L166.98-18.18Q168.45-18.18 168.45-16.61L168.45-16.61L168.45-16.61Q168.45-15.04 166.98-12.29L166.98-12.29L166.98-12.29Q165.50-9.54 164.80-7.81L164.80-7.81L164.80-7.81Q163.58-4.86 163.58-3.10L163.58-3.10L163.58-3.10Q163.58-1.34 164.10-0.77L164.10-0.77L164.10-0.77Q165.06 0.26 166.72-0.67L166.72-0.67L166.72-0.67Q168.38-1.60 171.36-4.26L171.36-4.26L171.36-4.26Q174.34-6.91 176.13-9.47L176.13-9.47L176.13-9.47Q176.38-9.79 176.74-9.63L176.74-9.63L176.74-9.63Q177.09-9.47 177.09-9.31L177.09-9.31L177.09-9.31Q177.09-9.15 176.96-8.96L176.96-8.96L176.96-8.96Q176-7.23 173.50-4.54L173.50-4.54L173.50-4.54Q171.01-1.86 168.70-0.22L168.70-0.22L168.70-0.22Q166.40 1.41 164.16 1.41L164.16 1.41L164.16 1.41Q161.98 1.34 161.09 0.42L161.09 0.42L161.09 0.42Q160.19-0.51 160.19-1.92L160.19-1.92L160.19-1.92Q160.19-3.33 160.45-4.64L160.45-4.64L160.45-4.64Q160.70-5.95 161.41-7.68L161.41-7.68L161.41-7.68Q162.56-10.43 163.42-11.97L163.42-11.97L163.42-11.97Q164.29-13.50 164.29-13.98L164.29-13.98L164.29-13.98Q164.29-14.46 163.78-14.46L163.78-14.46L163.78-14.46Q162.75-14.46 159.87-11.97L159.87-11.97L159.87-11.97Q157.89-10.11 154.02-4.96L154.02-4.96L154.02-4.96Q150.14 0.19 149.63 0.51L149.63 0.51L149.63 0.51Q147.33 1.66 146.75 1.66L146.75 1.66L146.75 1.66Q146.18 1.66 146.18 1.47L146.18 1.47L146.18 1.47Q146.18 1.28 146.30 0.93L146.30 0.93L146.30 0.93Q146.43 0.58 147.55-2.56L147.55-2.56L147.55-2.56Q148.67-5.70 149.98-9.44L149.98-9.44L149.98-9.44Q151.30-13.18 151.58-13.95L151.58-13.95L151.58-13.95Q151.87-14.72 151.97-15.26L151.97-15.26L151.97-15.26Q152.06-15.81 152.19-16.19L152.19-16.19L152.19-16.19Q152.32-16.58 152.67-17.06L152.67-17.06L152.67-17.06Q153.02-17.54 153.60-17.57L153.60-17.57L153.60-17.57Q154.18-17.60 155.07-17.44L155.07-17.44L155.07-17.44Q155.97-17.28 155.97-16.64L155.97-16.64L155.97-16.64Q155.97-16.19 155.26-14.69L155.26-14.69L155.26-14.69Q154.56-13.18 151.23-4.35L151.23-4.35L151.23-4.35Q153.54-7.17 157.06-10.85L157.06-10.85L157.06-10.85Q160.58-14.53 163.01-16.45L163.01-16.45L163.01-16.45Q165.44-18.18 166.98-18.18ZM231.42 1.60L231.42 1.60L231.42 1.60Q229.44 1.60 228.54-0.16L228.54-0.16L228.54-0.16Q227.65-1.92 227.65-4.64L227.65-4.64L227.65-4.64Q227.65-7.36 228.80-12.10L228.80-12.10L228.80-12.10Q226.56-12.29 221.18-12.99L221.18-12.99L221.18-12.99Q212.29-1.98 206.40 2.30L206.40 2.30L206.40 2.30Q201.34 6.08 195.90 6.08L195.90 6.08L195.90 6.08Q192.45 6.08 189.98 4.35L189.98 4.35L189.98 4.35Q187.52 2.62 187.52-0.77L187.52-0.77L187.52-0.77Q187.52-1.41 187.84-1.95L187.84-1.95L187.84-1.95Q188.16-2.50 188.48-2.24L188.48-2.24L188.48-2.24Q188.80-1.98 188.80-0.77L188.80-0.77L188.80-0.77Q188.80 1.41 190.50 2.50L190.50 2.50L190.50 2.50Q192.19 3.58 194.62 3.58L194.62 3.58L194.62 3.58Q199.87 3.58 204.96 0.16L204.96 0.16L204.96 0.16Q210.05-3.26 218.82-13.25L218.82-13.25L218.82-13.25Q209.41-14.40 206.40-14.40L206.40-14.40L206.40-14.40Q198.27-14.40 196.35-9.09L196.35-9.09L196.35-9.09Q196.10-8.38 196.10-7.78L196.10-7.78L196.10-7.78Q196.10-7.17 196.35-6.69L196.35-6.69L196.35-6.69Q196.61-6.21 196.45-5.92L196.45-5.92L196.45-5.92Q196.29-5.63 195.90-5.66L195.90-5.66L195.90-5.66Q195.52-5.70 195.26-6.08L195.26-6.08L195.26-6.08Q194.56-7.30 194.56-8.45L194.56-8.45L194.56-8.45Q194.56-12.42 196-14.30L196-14.30L196-14.30Q197.44-16.19 199.36-16.70L199.36-16.70L199.36-16.70Q201.66-17.34 204.74-17.34L204.74-17.34L204.74-17.34Q207.81-17.34 220.22-14.91L220.22-14.91L220.22-14.91Q223.68-18.88 230.72-27.68L230.72-27.68L230.72-27.68Q237.76-36.48 237.76-36.61L237.76-36.61L237.82-36.61L237.82-36.61Q237.89-36.67 238.14-36.80L238.14-36.80L238.14-36.80Q239.68-37.70 241.47-37.70L241.47-37.70L241.47-37.70Q242.11-37.70 242.11-37.06L242.11-37.06L242.11-37.06Q242.11-36.99 242.05-36.90L242.05-36.90L242.05-36.90Q241.98-36.80 241.92-36.64L241.92-36.64L241.92-36.64Q241.86-36.48 241.79-36.35L241.79-36.35L241.79-36.35Q235.65-26.18 232.26-13.44L232.26-13.44L232.06-12.99L233.66-12.93L233.66-12.93Q234.18-12.86 235.49-12.86L235.49-12.86L235.49-12.86Q236.80-12.86 238.27-13.47L238.27-13.47L238.27-13.47Q239.74-14.08 240.16-14.78L240.16-14.78L240.16-14.78Q240.58-15.49 240.90-15.10L240.90-15.10L240.90-15.10Q241.22-14.72 240.96-14.27L240.96-14.27L240.96-14.27Q240.26-12.99 238.46-12.42L238.46-12.42L238.46-12.42Q236.93-11.78 235.42-11.78L235.42-11.78L235.42-11.78Q233.92-11.78 233.47-11.78L233.47-11.78L231.74-11.84L231.74-11.84Q230.53-6.27 230.53-2.98L230.53-2.98L230.53-2.98Q230.53 0.32 232.32 0.32L232.32 0.32L232.32 0.32Q234.05 0.32 237.70-2.43L237.70-2.43L237.70-2.43Q241.34-5.18 244.54-9.54L244.54-9.54L244.54-9.54Q244.74-9.79 245.06-9.66L245.06-9.66L245.06-9.66Q245.38-9.54 245.38-9.34L245.38-9.34L245.38-9.34Q245.38-9.15 245.28-8.86L245.28-8.86L245.28-8.86Q245.18-8.58 244.29-7.42L244.29-7.42L244.29-7.42Q241.60-3.84 237.70-0.64L237.70-0.64L237.70-0.64Q234.88 1.60 231.42 1.60ZM234.94-30.59L234.94-30.59L234.94-30.59Q235.01-30.72 235.10-30.94L235.10-30.94L235.10-30.94Q235.20-31.17 235.26-31.30L235.26-31.30L235.26-31.30Q227.26-20.35 222.40-14.40L222.40-14.40L229.12-13.31L229.12-13.31Q230.91-20.29 234.94-30.59ZM252.16 1.60L252.16 1.60L252.16 1.60Q248.90 1.60 248.90-2.34L248.90-2.34L248.90-2.34Q248.90-6.27 254.53-12.03L254.53-12.03L254.53-12.03Q254.98-12.48 255.17-12.74L255.17-12.74L255.62-13.38L255.62-13.38Q256.51-14.59 256.45-14.91L256.45-14.91L256.26-15.49L256.26-15.49Q256-16.26 254.14-16.61L254.14-16.61L254.14-16.61Q252.29-16.96 251.14-16.96L251.14-16.96L251.14-16.96Q245.38-8.83 244.48-7.68L244.48-7.68L244.48-7.68Q243.58-6.53 243.26-6.72L243.26-6.72L243.26-6.72Q242.94-6.91 242.94-7.17L242.94-7.17L242.94-7.17Q242.94-7.42 243.33-7.94L243.33-7.94L243.33-7.94Q246.78-12.16 249.28-16.96L249.28-16.96L249.28-16.96Q248.51-17.09 248.13-17.50L248.13-17.50L248.13-17.50Q247.74-17.92 248.06-18.91L248.06-18.91L248.06-18.91Q248.38-19.90 250.02-21.57L250.02-21.57L250.02-21.57Q251.65-23.23 252.86-23.81L252.86-23.81L252.86-23.81Q254.08-24.38 254.40-24.51L254.40-24.51L254.40-24.51Q254.72-24.64 255.10-24.64L255.10-24.64L255.10-24.64Q255.87-24.64 254.59-22.34L254.59-22.34L252.10-18.37L252.10-18.37Q254.98-18.18 257.02-18.18L257.02-18.18L259.26-18.24L259.26-18.24Q260.35-18.24 260.86-17.95L260.86-17.95L260.86-17.95Q261.38-17.66 261.12-16.96L261.12-16.96L261.12-16.96Q260.67-15.74 258.88-13.70L258.88-13.70L258.88-13.70Q255.04-9.22 253.12-4.16L253.12-4.16L253.12-4.16Q252.67-2.94 252.67-2.05L252.67-2.05L252.67-2.05Q252.67-0.19 254.02-0.19L254.02-0.19L254.02-0.19Q254.46-0.19 255.71-0.90L255.71-0.90L255.71-0.90Q256.96-1.60 259.90-4.26L259.90-4.26L259.90-4.26Q262.85-6.91 264.64-9.47L264.64-9.47L264.64-9.47Q264.90-9.79 265.25-9.63L265.25-9.63L265.25-9.63Q265.60-9.47 265.60-9.31L265.60-9.31L265.60-9.31Q265.60-9.15 265.47-8.96L265.47-8.96L265.47-8.96Q264.51-7.23 262.02-4.54L262.02-4.54L262.02-4.54Q259.52-1.86 257.15-0.19L257.15-0.19L257.15-0.19Q254.85 1.60 252.16 1.60ZM267.07 0.70L267.07 0.70L267.07 0.70Q266.05 0.70 264.86 0.10L264.86 0.10L264.86 0.10Q263.68-0.51 262.85-1.63L262.85-1.63L262.85-1.63Q262.02-2.75 262.02-4.03L262.02-4.03L262.02-4.03Q262.02-5.31 262.59-6.46L262.59-6.46L262.59-6.46Q263.87-9.15 266.72-11.68L266.72-11.68L266.72-11.68Q269.57-14.21 272.64-16L272.64-16L272.64-16Q275.71-17.79 277.50-18.24L277.50-18.24L277.50-18.24Q279.30-18.69 280.99-18.69L280.99-18.69L280.99-18.69Q282.69-18.69 283.90-17.82L283.90-17.82L283.90-17.82Q285.12-16.96 285.12-16L285.12-16L285.12-16Q285.12-15.68 285.06-15.62L285.06-15.62L285.06-15.62Q284.99-15.55 284.74-15.68L284.74-15.68L284.74-15.68Q283.97-16.90 281.57-16.90L281.57-16.90L281.57-16.90Q279.17-16.90 276.13-15.33L276.13-15.33L276.13-15.33Q273.09-13.76 270.40-11.39L270.40-11.39L270.40-11.39Q268.16-9.28 266.46-6.62L266.46-6.62L266.46-6.62Q264.77-3.97 264.77-2.75L264.77-2.75L264.77-2.75Q264.77-0.38 266.11-0.38L266.11-0.38L266.11-0.38Q267.46-0.38 270.21-2.56L270.21-2.56L270.21-2.56Q274.75-6.40 276.42-8.19L276.42-8.19L276.42-8.19Q282.30-14.53 282.75-14.53L282.75-14.53L282.75-14.53Q283.52-14.53 284.61-14.08L284.61-14.08L284.61-14.08Q285.70-13.63 285.31-12.99L285.31-12.99L285.31-12.99Q282.05-8.38 281.47-3.71L281.47-3.71L281.47-3.71Q281.41-3.14 281.41-2.24L281.41-2.24L281.41-2.24Q281.41-1.34 281.92-0.77L281.92-0.77L281.92-0.77Q282.88 0.26 284.54-0.64L284.54-0.64L284.54-0.64Q286.21-1.54 289.18-4.22L289.18-4.22L289.18-4.22Q292.16-6.91 293.95-9.47L293.95-9.47L293.95-9.47Q294.21-9.79 294.53-9.63L294.53-9.63L294.53-9.63Q294.85-9.47 294.85-9.34L294.85-9.34L294.85-9.34Q294.85-8.38 291.81-5.15L291.81-5.15L291.81-5.15Q288.77-1.92 287.17-0.77L287.17-0.77L287.17-0.77Q284.16 1.47 281.60 1.47L281.60 1.47L281.60 1.47Q279.17 1.47 278.34-0.96L278.34-0.96L278.34-0.96Q278.14-1.73 278.14-2.69L278.14-2.69L278.14-2.69Q278.14-5.57 279.36-8.77L279.36-8.77L279.36-8.77Q279.10-8.64 276.99-6.21L276.99-6.21L276.99-6.21Q274.88-3.78 272.10-1.54L272.10-1.54L272.10-1.54Q269.31 0.70 267.07 0.70ZM301.57 1.60L301.57 1.60L301.57 1.60Q298.30 1.60 298.30-2.34L298.30-2.34L298.30-2.34Q298.30-6.27 303.94-12.03L303.94-12.03L303.94-12.03Q304.38-12.48 304.58-12.74L304.58-12.74L305.02-13.38L305.02-13.38Q305.92-14.59 305.86-14.91L305.86-14.91L305.66-15.49L305.66-15.49Q305.41-16.26 303.55-16.61L303.55-16.61L303.55-16.61Q301.70-16.96 300.54-16.96L300.54-16.96L300.54-16.96Q294.78-8.83 293.89-7.68L293.89-7.68L293.89-7.68Q292.99-6.53 292.67-6.72L292.67-6.72L292.67-6.72Q292.35-6.91 292.35-7.17L292.35-7.17L292.35-7.17Q292.35-7.42 292.74-7.94L292.74-7.94L292.74-7.94Q296.19-12.16 298.69-16.96L298.69-16.96L298.69-16.96Q297.92-17.09 297.54-17.50L297.54-17.50L297.54-17.50Q297.15-17.92 297.47-18.91L297.47-18.91L297.47-18.91Q297.79-19.90 299.42-21.57L299.42-21.57L299.42-21.57Q301.06-23.23 302.27-23.81L302.27-23.81L302.27-23.81Q303.49-24.38 303.81-24.51L303.81-24.51L303.81-24.51Q304.13-24.64 304.51-24.64L304.51-24.64L304.51-24.64Q305.28-24.64 304-22.34L304-22.34L301.50-18.37L301.50-18.37Q304.38-18.18 306.43-18.18L306.43-18.18L308.67-18.24L308.67-18.24Q309.76-18.24 310.27-17.95L310.27-17.95L310.27-17.95Q310.78-17.66 310.53-16.96L310.53-16.96L310.53-16.96Q310.08-15.74 308.29-13.70L308.29-13.70L308.29-13.70Q304.45-9.22 302.53-4.16L302.53-4.16L302.53-4.16Q302.08-2.94 302.08-2.05L302.08-2.05L302.08-2.05Q302.08-0.19 303.42-0.19L303.42-0.19L303.42-0.19Q303.87-0.19 305.12-0.90L305.12-0.90L305.12-0.90Q306.37-1.60 309.31-4.26L309.31-4.26L309.31-4.26Q312.26-6.91 314.05-9.47L314.05-9.47L314.05-9.47Q314.30-9.79 314.66-9.63L314.66-9.63L314.66-9.63Q315.01-9.47 315.01-9.31L315.01-9.31L315.01-9.31Q315.01-9.15 314.88-8.96L314.88-8.96L314.88-8.96Q313.92-7.23 311.42-4.54L311.42-4.54L311.42-4.54Q308.93-1.86 306.56-0.19L306.56-0.19L306.56-0.19Q304.26 1.60 301.57 1.60Z"/></g></g><style>text {
  font-size: 64px;
  font-family: Arial Black;
  dominant-baseline: central;
  text-anchor: middle;
}</style></svg>