<svg preserveAspectRatio="xMidYMid" style="max-height: 500px" viewBox="212.2387668918919 29.214399999999998 75.5224662162162 121.472" xmlns="http://www.w3.org/2000/svg" width="75.5224662162162" height="121.472"><defs><filter height="300%" width="300%" y="-100%" x="-100%" id="editing-lego"><feFlood result="f1" flood-color="#606c38"/><feFlood result="f2" flood-color="#dda15e"/><feMorphology in="SourceAlpha" radius="3" operator="dilate"/><feConvolveMatrix kernelMatrix="0 1 1 1 0  1 0 0 0 1  1 0 0 0 1  1 0 0 0 1  0 1 1 1 0" result="cm1" divisor="1" order="5,5"/><feComposite result="c1" in2="cm1" in="f1" operator="in"/><feMorphology radius="3" operator="dilate"/><feConvolveMatrix kernelMatrix="0 1 1 1 0  1 0 0 0 1  1 0 0 0 1  1 0 0 0 1  0 1 1 1 0" result="cm2" divisor="1" order="5,5"/><feComposite result="c2" in2="cm2" in="f2" operator="in"/><feMerge><feMergeNode in="c2"/><feMergeNode in="c1"/><feMergeNode in="SourceGraphic"/></feMerge></filter></defs><g filter="url(#editing-lego)"><g transform="translate(220.43500399589539, 126.54500150680542)"><path fill="#fff" d="M1.45-1.58L1.45-1.58L1.45-1.58Q1.45-13.20 6.53-21.65L6.53-21.65L6.53-21.65Q11.62-30.10 17.16-30.10L17.16-30.10L17.16-30.10Q18.61-30.10 20.06-29.17L20.06-29.17L20.46-28.25L20.46-28.25Q18.74-24.95 18.35-19.93L18.35-19.93L17.56-19.40L17.56-19.40Q17.03-19.67 15.58-19.67L15.58-19.67L15.58-19.67Q14.12-19.67 11.29-18.08L11.29-18.08L11.29-18.08Q8.45-16.50 6.86-14.92L6.86-14.92L6.86-14.92Q5.94-13.07 5.94-10.69L5.94-10.69L5.94-10.69Q5.94-4.49 14.32-0.07L14.32-0.07L14.32-0.07Q22.70 4.36 30.49 4.36L30.49 4.36L30.49 4.36Q46.73 4.36 46.73-14.12L46.73-14.12L46.73-14.12Q46.73-21.12 33.40-31.68L33.40-31.68L33.40-31.68Q27.85-36.17 22.31-40.66L22.31-40.66L22.31-40.66Q8.98-51.22 8.98-59.00L8.98-59.00L8.98-59.00Q8.98-68.24 17.29-76.23L17.29-76.23L17.29-76.23Q25.61-84.22 36.17-87.91L36.17-87.91L36.17-87.91Q47.52-87.91 57.68-85.67L57.68-85.67L57.68-83.03L57.68-83.03Q50.82-76.69 50.03-63.49L50.03-63.49L46.73-63.49L46.73-63.49Q46.73-70.49 46.07-75.77L46.07-75.77L46.07-75.77Q40.39-78.41 33.73-78.41L33.73-78.41L33.73-78.41Q27.06-78.41 22.44-75.57L22.44-75.57L22.44-75.57Q17.82-72.73 17.82-68.38L17.82-68.38L17.82-68.38Q17.82-64.02 21.71-59.60L21.71-59.60L21.71-59.60Q25.61-55.18 31.15-51.02L31.15-51.02L31.15-51.02Q36.70-46.86 42.17-42.57L42.17-42.57L42.17-42.57Q47.65-38.28 51.55-33.33L51.55-33.33L51.55-33.33Q55.44-28.38 55.44-23.76L55.44-23.76L55.44-23.76Q55.44-10.56 48.18-0.26L48.18-0.26L48.18-0.26Q40.92 10.03 28.38 15.18L28.38 15.18L28.38 15.18Q11.88 13.46 1.98 5.94L1.98 5.94L1.98 5.94Q1.45 2.24 1.45-1.58Z"/></g></g><style>text {
  font-size: 64px;
  font-family: Arial Black;
  dominant-baseline: central;
  text-anchor: middle;
}</style></svg>